<?xml version="1.0" encoding="UTF-8" standalone="no"?>
<!-- Generator: Adobe Illustrator 16.0.5, SVG Export Plug-In . SVG Version: 6.00 Build 0)  -->

<svg
   version="1.1"
   id="Ebene_1"
   x="0px"
   y="0px"
   width="411.02402"
   height="109.035"
   viewBox="0 0 411.024 109.035"
   enable-background="new 0 0 595.28 841.89"
   xml:space="preserve"
   sodipodi:docname="Tectonica_Logo.svg"
   inkscape:version="1.2.2 (b0a8486541, 2022-12-01)"
   xmlns:inkscape="http://www.inkscape.org/namespaces/inkscape"
   xmlns:sodipodi="http://sodipodi.sourceforge.net/DTD/sodipodi-0.dtd"
   xmlns="http://www.w3.org/2000/svg"
   xmlns:svg="http://www.w3.org/2000/svg"><defs
   id="defs91" /><sodipodi:namedview
   id="namedview89"
   pagecolor="#ffffff"
   bordercolor="#000000"
   borderopacity="0.25"
   inkscape:showpageshadow="2"
   inkscape:pageopacity="0.0"
   inkscape:pagecheckerboard="0"
   inkscape:deskcolor="#d1d1d1"
   showgrid="false"
   inkscape:zoom="1.1486061"
   inkscape:cx="226.36133"
   inkscape:cy="369.14309"
   inkscape:window-width="2560"
   inkscape:window-height="1410"
   inkscape:window-x="2560"
   inkscape:window-y="30"
   inkscape:window-maximized="1"
   inkscape:current-layer="Ebene_1" />
<g
   id="g86"
   transform="translate(-58.139,-51.392)">
	<rect
   x="195.058"
   y="95.073997"
   fill="#007372"
   width="274.10501"
   height="40.338001"
   id="rect2" />
	<g
   id="g22">
		<path
   fill="#1d1d1b"
   d="m 105.675,105.048 c -1.273,0.336 -2.661,0.613 -4.162,0.829 -1.502,0.216 -2.841,0.324 -4.018,0.324 -4.108,0 -7.231,-1.104 -9.369,-3.315 -2.139,-2.209 -3.207,-5.753 -3.207,-10.63 V 70.852 h -4.577 v -5.694 h 4.577 V 53.591 h 6.774 v 11.567 h 13.981 v 5.694 h -13.98 v 18.342 c 0,2.114 0.048,3.765 0.144,4.955 0.096,1.189 0.433,2.3 1.009,3.333 0.528,0.961 1.255,1.664 2.18,2.108 0.924,0.445 2.336,0.667 4.234,0.667 1.104,0 2.257,-0.162 3.459,-0.487 1.201,-0.324 2.066,-0.594 2.595,-0.811 h 0.36 z"
   id="path4" />
		<path
   fill="#1d1d1b"
   d="m 147.179,85.986 h -29.657 c 0,2.475 0.372,4.63 1.117,6.468 0.745,1.838 1.766,3.346 3.063,4.522 1.249,1.153 2.732,2.018 4.45,2.594 1.717,0.577 3.609,0.865 5.676,0.865 2.738,0 5.495,-0.546 8.27,-1.64 2.775,-1.093 4.75,-2.168 5.928,-3.226 h 0.36 v 7.388 c -2.283,0.961 -4.612,1.766 -6.991,2.414 -2.379,0.648 -4.877,0.973 -7.495,0.973 -6.679,0 -11.892,-1.807 -15.639,-5.423 -3.748,-3.615 -5.622,-8.75 -5.622,-15.405 0,-6.582 1.796,-11.807 5.387,-15.675 3.591,-3.868 8.318,-5.802 14.18,-5.802 5.429,0 9.615,1.585 12.559,4.756 2.942,3.171 4.414,7.676 4.414,13.513 z m -6.595,-5.189 c -0.024,-3.556 -0.919,-6.306 -2.685,-8.252 -1.766,-1.946 -4.45,-2.918 -8.053,-2.918 -3.628,0 -6.517,1.069 -8.667,3.207 -2.15,2.138 -3.37,4.792 -3.658,7.964 h 23.063 z"
   id="path6" />
		<path
   fill="#1d1d1b"
   d="m 186.845,102.886 c -2.259,1.081 -4.403,1.922 -6.433,2.522 -2.03,0.6 -4.186,0.901 -6.468,0.901 -2.907,0 -5.573,-0.427 -8,-1.279 -2.427,-0.853 -4.504,-2.144 -6.234,-3.874 -1.753,-1.73 -3.111,-3.916 -4.072,-6.559 -0.961,-2.642 -1.441,-5.729 -1.441,-9.261 0,-6.582 1.807,-11.748 5.423,-15.495 3.615,-3.748 8.39,-5.622 14.324,-5.622 2.306,0 4.57,0.324 6.792,0.973 2.222,0.648 4.258,1.441 6.108,2.378 v 7.531 h -0.36 c -2.067,-1.609 -4.198,-2.847 -6.396,-3.712 -2.198,-0.864 -4.342,-1.297 -6.432,-1.297 -3.844,0 -6.877,1.292 -9.099,3.874 -2.223,2.582 -3.333,6.372 -3.333,11.369 0,4.853 1.087,8.582 3.261,11.189 2.174,2.607 5.231,3.91 9.171,3.91 1.369,0 2.762,-0.18 4.18,-0.541 1.417,-0.36 2.69,-0.829 3.819,-1.405 0.985,-0.504 1.91,-1.039 2.775,-1.604 0.865,-0.564 1.549,-1.05 2.054,-1.459 h 0.36 v 7.461 z"
   id="path8" />
		<path
   fill="#1d1d1b"
   d="m 216.06,105.048 c -1.273,0.336 -2.661,0.613 -4.162,0.829 -1.502,0.216 -2.841,0.324 -4.018,0.324 -4.108,0 -7.231,-1.104 -9.369,-3.315 -2.139,-2.209 -3.208,-5.753 -3.208,-10.63 V 70.852 h -4.576 v -5.694 h 4.576 V 53.591 h 6.775 v 11.567 h 13.981 v 5.694 h -13.981 v 18.342 c 0,2.114 0.048,3.765 0.144,4.955 0.096,1.189 0.433,2.3 1.009,3.333 0.528,0.961 1.255,1.664 2.18,2.108 0.925,0.445 2.336,0.667 4.234,0.667 1.104,0 2.257,-0.162 3.459,-0.487 1.201,-0.324 2.066,-0.594 2.595,-0.811 h 0.36 v 6.089 z"
   id="path10" />
		<path
   fill="#1d1d1b"
   d="m 258.176,85.301 c 0,6.559 -1.682,11.736 -5.045,15.531 -3.363,3.796 -7.868,5.693 -13.513,5.693 -5.693,0 -10.215,-1.897 -13.567,-5.693 -3.351,-3.795 -5.027,-8.973 -5.027,-15.531 0,-6.558 1.676,-11.741 5.027,-15.549 3.352,-3.808 7.874,-5.711 13.567,-5.711 5.645,0 10.15,1.904 13.513,5.711 3.363,3.808 5.045,8.991 5.045,15.549 z m -6.991,0 c 0,-5.212 -1.021,-9.086 -3.063,-11.621 -2.042,-2.534 -4.877,-3.802 -8.504,-3.802 -3.675,0 -6.528,1.268 -8.558,3.802 -2.03,2.535 -3.045,6.409 -3.045,11.621 0,5.045 1.021,8.871 3.063,11.477 2.042,2.607 4.888,3.91 8.54,3.91 3.604,0 6.432,-1.292 8.486,-3.874 2.054,-2.582 3.081,-6.419 3.081,-11.513 z"
   id="path12" />
		<path
   fill="#1d1d1b"
   d="m 301.949,105.409 h -6.774 V 82.49 c 0,-1.85 -0.108,-3.585 -0.324,-5.207 -0.216,-1.622 -0.613,-2.889 -1.189,-3.802 -0.601,-1.009 -1.466,-1.76 -2.594,-2.252 -1.13,-0.492 -2.595,-0.738 -4.396,-0.738 -1.851,0 -3.784,0.457 -5.802,1.369 -2.018,0.913 -3.952,2.078 -5.802,3.495 v 30.053 h -6.774 v -40.25 h 6.774 v 4.469 c 2.114,-1.753 4.3,-3.123 6.559,-4.108 2.258,-0.985 4.576,-1.478 6.955,-1.478 4.348,0 7.663,1.31 9.946,3.928 2.282,2.619 3.423,6.39 3.423,11.315 v 26.125 z"
   id="path14" />
		<path
   fill="#1d1d1b"
   d="m 321.903,58.419 h -7.64 v -7.027 h 7.64 z m -0.431,46.99 h -6.775 V 65.158 h 6.775 z"
   id="path16" />
		<path
   fill="#1d1d1b"
   d="m 364.272,102.886 c -2.259,1.081 -4.402,1.922 -6.432,2.522 -2.031,0.6 -4.188,0.901 -6.47,0.901 -2.906,0 -5.573,-0.427 -8,-1.279 -2.426,-0.853 -4.504,-2.144 -6.233,-3.874 -1.753,-1.73 -3.111,-3.916 -4.071,-6.559 -0.962,-2.642 -1.441,-5.729 -1.441,-9.261 0,-6.582 1.807,-11.748 5.423,-15.495 3.615,-3.748 8.39,-5.622 14.323,-5.622 2.307,0 4.571,0.324 6.793,0.973 2.222,0.648 4.258,1.441 6.108,2.378 v 7.531 h -0.36 c -2.066,-1.609 -4.198,-2.847 -6.396,-3.712 -2.198,-0.864 -4.342,-1.297 -6.433,-1.297 -3.844,0 -6.876,1.292 -9.098,3.874 -2.223,2.582 -3.334,6.372 -3.334,11.369 0,4.853 1.086,8.582 3.262,11.189 2.173,2.607 5.23,3.91 9.17,3.91 1.369,0 2.764,-0.18 4.182,-0.541 1.416,-0.36 2.688,-0.829 3.818,-1.405 0.985,-0.504 1.91,-1.039 2.775,-1.604 0.864,-0.564 1.549,-1.05 2.054,-1.459 h 0.36 z"
   id="path18" />
		<path
   fill="#1d1d1b"
   d="m 403.865,105.409 h -6.738 v -4.288 c -0.602,0.409 -1.412,0.979 -2.432,1.712 -1.022,0.733 -2.013,1.315 -2.974,1.748 -1.13,0.553 -2.427,1.015 -3.892,1.387 -1.466,0.372 -3.184,0.559 -5.152,0.559 -3.628,0 -6.703,-1.201 -9.226,-3.604 -2.523,-2.402 -3.783,-5.465 -3.783,-9.189 0,-3.05 0.654,-5.519 1.963,-7.405 1.31,-1.885 3.178,-3.369 5.604,-4.45 2.451,-1.081 5.394,-1.813 8.829,-2.198 3.435,-0.384 7.122,-0.672 11.062,-0.864 V 77.77 c 0,-1.537 -0.271,-2.811 -0.811,-3.819 -0.541,-1.009 -1.315,-1.802 -2.324,-2.379 -0.961,-0.552 -2.115,-0.924 -3.46,-1.117 -1.346,-0.192 -2.751,-0.288 -4.216,-0.288 -1.778,0 -3.76,0.234 -5.945,0.702 -2.187,0.469 -4.445,1.148 -6.774,2.036 h -0.361 v -6.882 c 1.321,-0.36 3.231,-0.757 5.73,-1.189 2.497,-0.432 4.96,-0.648 7.387,-0.648 2.834,0 5.303,0.234 7.405,0.703 2.102,0.469 3.922,1.268 5.459,2.396 1.513,1.105 2.667,2.535 3.459,4.288 0.793,1.754 1.189,3.928 1.189,6.522 v 27.314 z m -6.738,-9.91 V 84.292 c -2.066,0.121 -4.498,0.301 -7.297,0.541 -2.799,0.24 -5.016,0.589 -6.648,1.045 -1.946,0.553 -3.52,1.411 -4.72,2.576 -1.202,1.166 -1.803,2.77 -1.803,4.811 0,2.306 0.696,4.042 2.091,5.208 1.392,1.166 3.519,1.748 6.377,1.748 2.378,0 4.553,-0.462 6.522,-1.387 1.969,-0.925 3.795,-2.038 5.478,-3.335 z"
   id="path20" />
	</g>
	<rect
   x="58.139"
   y="95.071999"
   fill="#007372"
   width="8.4829998"
   height="40.34"
   id="rect24" />
	<g
   id="g36">
		<g
   id="g34">
			<path
   fill="#1d1d1b"
   d="m 425.758,101.419 v 6.047 c -1.557,0.608 -2.97,0.805 -4.635,0.805 -3.525,0 -5.511,-2.755 -5.511,-6.728 0,-3.328 1.771,-6.727 5.511,-6.727 2.147,0 4.349,1.163 4.545,3.453 h -1.324 c -0.232,-1.646 -1.683,-2.38 -3.221,-2.38 -3.095,0 -4.257,2.971 -4.257,5.654 0,3.292 1.377,5.654 4.866,5.654 0.966,0 1.949,-0.268 2.862,-0.537 v -4.168 h -3.238 v -1.074 h 4.402 z"
   id="path26" />
			<path
   fill="#1d1d1b"
   d="m 429.875,100.346 0.036,0.036 c 0.626,-1.109 1.646,-1.628 2.809,-1.628 1.414,0 2.523,0.787 2.917,1.968 0.662,-1.055 1.7,-1.968 3.095,-1.968 2.935,0 3.167,2.595 3.167,3.632 v 5.618 h -1.074 v -5.797 c 0,-1.556 -0.894,-2.469 -2.361,-2.469 -1.771,0 -2.576,1.485 -2.576,3.096 v 5.17 h -1.073 v -5.797 c 0,-1.556 -0.895,-2.469 -2.361,-2.469 -1.771,0 -2.577,1.485 -2.577,3.096 v 5.17 h -1.073 v -6.96 c 0,-0.697 -0.053,-1.413 -0.09,-2.021 h 1.11 z"
   id="path28" />
			<path
   fill="#1d1d1b"
   d="m 445.57,108.003 h -1.109 c 0.036,-0.608 0.089,-1.324 0.089,-2.021 V 95.086 h 1.075 v 5.26 l 0.035,0.036 c 0.626,-1.056 1.879,-1.628 3.076,-1.628 2.666,0 3.687,2.398 3.687,4.724 0,2.254 -1.021,4.795 -3.632,4.795 -1.307,0 -2.396,-0.59 -3.131,-1.664 l -0.035,0.072 z m 0.055,-4.669 c 0,2.04 0.715,3.954 3.06,3.954 2.056,0 2.576,-2.237 2.576,-3.9 0,-1.717 -0.699,-3.65 -2.738,-3.65 -2.094,-0.001 -2.898,1.771 -2.898,3.596 z"
   id="path30" />
			<path
   fill="#1d1d1b"
   d="M 455.021,108.003 V 95.086 h 1.163 v 5.671 h 7.05 v -5.671 h 1.162 v 12.917 h -1.162 v -6.172 h -7.05 v 6.172 z"
   id="path32" />
		</g>
	</g>
	<g
   id="g84">
		<g
   id="g82">
			<path
   fill="#1d1d1b"
   d="m 196.268,148.994 h -1.79 v -0.983 h 1.79 v -1.915 l 1.073,-0.465 v 2.38 h 2.04 v 0.983 h -2.04 v 6.012 c -0.018,0.824 0.412,1.271 1.235,1.271 0.322,0 0.644,-0.018 0.93,-0.107 v 0.93 c -0.34,0.09 -0.733,0.162 -1.091,0.162 -2.272,0 -2.147,-1.45 -2.147,-2.666 z"
   id="path38" />
			<path
   fill="#1d1d1b"
   d="m 202.532,149.37 h 0.036 c 0.626,-1.109 1.646,-1.628 2.809,-1.628 2.934,0 3.167,2.595 3.167,3.632 v 5.618 h -1.074 v -5.796 c 0,-1.557 -0.895,-2.469 -2.362,-2.469 -1.771,0 -2.576,1.485 -2.576,3.095 v 5.17 h -1.074 v -12.918 h 1.074 z"
   id="path40" />
			<path
   fill="#1d1d1b"
   d="m 219.138,152.501 c 0,2.361 -1.324,4.759 -4.187,4.759 -2.863,0 -4.187,-2.398 -4.187,-4.759 0,-2.362 1.324,-4.759 4.187,-4.759 2.863,0 4.187,2.397 4.187,4.759 z m -4.187,-3.775 c -2.165,0 -3.023,2.111 -3.023,3.775 0,1.664 0.859,3.775 3.023,3.775 2.165,0 3.024,-2.111 3.024,-3.775 0,-1.664 -0.859,-3.775 -3.024,-3.775 z"
   id="path42" />
			<path
   fill="#1d1d1b"
   d="m 222.415,149.333 0.036,0.036 c 0.626,-1.109 1.646,-1.628 2.809,-1.628 1.414,0 2.522,0.788 2.917,1.968 0.662,-1.056 1.7,-1.968 3.095,-1.968 2.935,0 3.167,2.595 3.167,3.632 v 5.618 h -1.073 v -5.796 c 0,-1.557 -0.895,-2.469 -2.362,-2.469 -1.771,0 -2.576,1.485 -2.576,3.095 v 5.17 h -1.074 v -5.796 c 0,-1.557 -0.895,-2.469 -2.362,-2.469 -1.771,0 -2.576,1.485 -2.576,3.095 v 5.17 h -1.074 v -6.96 c 0,-0.698 -0.053,-1.413 -0.089,-2.021 h 1.109 z"
   id="path44" />
			<path
   fill="#1d1d1b"
   d="m 242.35,150.658 c -0.108,-1.466 -0.859,-1.932 -2.129,-1.932 -1.127,0 -2.057,0.34 -2.2,1.556 h -1.145 c 0.268,-1.842 1.646,-2.54 3.363,-2.54 1.986,0 3.221,0.912 3.185,2.97 v 4.259 c -0.018,0.697 0.054,1.413 0.09,2.021 h -1.11 l -0.036,-1.324 h -0.036 l -0.054,0.125 c -0.394,0.751 -1.592,1.467 -2.809,1.467 -1.664,0 -2.988,-1.021 -2.988,-2.774 0,-1.216 0.734,-2.146 1.807,-2.594 1.199,-0.519 2.755,-0.34 4.062,-0.411 z m -2.684,5.618 c 2.344,0 2.792,-1.932 2.684,-3.811 -1.521,0.054 -4.706,-0.233 -4.706,2.021 0.001,1.217 0.931,1.79 2.022,1.79 z"
   id="path46" />
			<path
   fill="#1d1d1b"
   d="m 249.205,147.742 c 1.7,0 3.131,0.591 3.274,2.487 h -1.163 c -0.107,-1.127 -1.109,-1.502 -2.218,-1.502 -1.002,0 -2.022,0.393 -2.022,1.449 0,1.324 1.736,1.199 4.169,2.057 0.93,0.323 1.521,1.128 1.521,2.094 0,2.022 -1.878,2.935 -3.775,2.935 -1.556,0 -3.345,-0.734 -3.381,-2.719 h 1.163 c 0.089,1.341 1.27,1.735 2.487,1.735 1.145,0 2.344,-0.537 2.344,-1.79 0,-1.287 -1.414,-1.502 -2.845,-1.825 -1.414,-0.34 -2.845,-0.752 -2.845,-2.415 -10e-4,-1.862 1.716,-2.506 3.291,-2.506 z"
   id="path48" />
			<path
   fill="#1d1d1b"
   d="m 266.207,156.992 h -1.074 v -12.918 h 1.074 z"
   id="path50" />
			<path
   fill="#1d1d1b"
   d="m 276.817,152.501 c 0,2.361 -1.324,4.759 -4.187,4.759 -2.863,0 -4.187,-2.398 -4.187,-4.759 0,-2.362 1.324,-4.759 4.187,-4.759 2.863,0 4.187,2.397 4.187,4.759 z m -4.187,-3.775 c -2.165,0 -3.023,2.111 -3.023,3.775 0,1.664 0.859,3.775 3.023,3.775 2.165,0 3.024,-2.111 3.024,-3.775 0,-1.664 -0.859,-3.775 -3.024,-3.775 z"
   id="path52" />
			<path
   fill="#1d1d1b"
   d="m 279.665,152.751 c 0.036,1.915 0.913,3.525 3.114,3.525 1.27,0 2.325,-0.912 2.594,-2.147 h 1.127 c -0.555,2.147 -1.896,3.131 -4.061,3.131 -2.684,0 -3.937,-2.309 -3.937,-4.759 0,-2.434 1.342,-4.759 4.008,-4.759 3.006,0 4.097,2.2 4.097,5.009 z m 5.779,-0.983 c -0.125,-1.736 -1.056,-3.042 -2.917,-3.042 -1.753,0 -2.684,1.466 -2.827,3.042 z"
   id="path54" />
			<path
   fill="#1d1d1b"
   d="m 289.758,148.994 h -1.789 v -0.983 h 1.789 v -1.915 l 1.074,-0.465 v 2.38 h 2.04 v 0.983 h -2.04 v 6.012 c -0.018,0.824 0.412,1.271 1.235,1.271 0.322,0 0.644,-0.018 0.93,-0.107 v 0.93 c -0.34,0.09 -0.734,0.162 -1.091,0.162 -2.272,0 -2.147,-1.45 -2.147,-2.666 v -5.602 z"
   id="path56" />
			<path
   fill="#1d1d1b"
   d="m 297.936,147.742 c 1.7,0 3.13,0.591 3.274,2.487 h -1.163 c -0.107,-1.127 -1.109,-1.502 -2.218,-1.502 -1.002,0 -2.022,0.393 -2.022,1.449 0,1.324 1.735,1.199 4.169,2.057 0.93,0.323 1.52,1.128 1.52,2.094 0,2.022 -1.878,2.935 -3.775,2.935 -1.556,0 -3.345,-0.734 -3.381,-2.719 h 1.163 c 0.089,1.341 1.27,1.735 2.487,1.735 1.145,0 2.344,-0.537 2.344,-1.79 0,-1.287 -1.414,-1.502 -2.845,-1.825 -1.414,-0.34 -2.845,-0.752 -2.845,-2.415 0,-1.862 1.718,-2.506 3.292,-2.506 z"
   id="path58" />
			<path
   fill="#1d1d1b"
   d="m 309.568,150.765 c -0.089,-1.376 -0.967,-2.039 -2.451,-2.039 -1.646,0 -2.666,1.717 -2.666,3.756 0,2.059 1.02,3.793 2.666,3.793 1.396,0 2.362,-0.859 2.451,-2.093 h 1.163 c -0.286,2.057 -1.468,3.078 -3.508,3.078 -2.683,0 -3.936,-2.309 -3.936,-4.759 0,-2.434 1.343,-4.759 4.008,-4.759 1.843,0 3.346,1.109 3.436,3.023 z"
   id="path60" />
			<path
   fill="#1d1d1b"
   d="m 313.918,149.37 h 0.036 c 0.626,-1.109 1.646,-1.628 2.809,-1.628 2.935,0 3.167,2.595 3.167,3.632 v 5.618 h -1.074 v -5.796 c 0,-1.557 -0.894,-2.469 -2.36,-2.469 -1.771,0 -2.577,1.485 -2.577,3.095 v 5.17 h -1.073 v -12.918 h 1.073 v 5.296 z"
   id="path62" />
			<path
   fill="#1d1d1b"
   d="m 323.421,152.751 c 0.037,1.915 0.913,3.525 3.113,3.525 1.27,0 2.325,-0.912 2.594,-2.147 h 1.128 c -0.555,2.147 -1.896,3.131 -4.062,3.131 -2.684,0 -3.936,-2.309 -3.936,-4.759 0,-2.434 1.342,-4.759 4.008,-4.759 3.007,0 4.098,2.2 4.098,5.009 z m 5.779,-0.983 c -0.125,-1.736 -1.056,-3.042 -2.917,-3.042 -1.753,0 -2.684,1.466 -2.825,3.042 z"
   id="path64" />
			<path
   fill="#1d1d1b"
   d="m 333.819,156.992 h -1.074 v -6.96 c 0.019,-0.698 -0.053,-1.413 -0.089,-2.021 h 1.108 l 0.055,1.323 h 0.035 c 0.322,-0.913 1.128,-1.556 2.021,-1.592 0.358,-0.018 0.717,0 1.074,0.018 v 1.037 c -0.216,-0.018 -0.447,-0.071 -0.661,-0.071 -1.593,0 -2.435,1.145 -2.47,2.862 v 5.404 z"
   id="path66" />
			<path
   fill="#1d1d1b"
   d="m 349.551,160.427 h -1.075 v -10.395 c 0.019,-0.698 -0.053,-1.413 -0.089,-2.021 h 1.109 l 0.055,1.323 0.035,0.036 c 0.626,-1.056 1.879,-1.628 3.076,-1.628 2.666,0 3.687,2.397 3.687,4.723 0,2.254 -1.021,4.795 -3.632,4.795 -1.307,0 -2.397,-0.591 -3.131,-1.664 h -0.035 z m 3.059,-4.151 c 2.056,0 2.576,-2.272 2.576,-3.936 0,-1.718 -0.699,-3.614 -2.738,-3.614 -2.094,0 -2.897,1.735 -2.897,3.56 0,2.04 0.715,3.99 3.059,3.99 z"
   id="path68" />
			<path
   fill="#1d1d1b"
   d="m 363.687,150.658 c -0.107,-1.466 -0.858,-1.932 -2.128,-1.932 -1.128,0 -2.059,0.34 -2.201,1.556 h -1.145 c 0.268,-1.842 1.646,-2.54 3.362,-2.54 1.986,0 3.222,0.912 3.185,2.97 v 4.259 c -0.018,0.697 0.055,1.413 0.09,2.021 h -1.109 l -0.036,-1.324 h -0.035 l -0.055,0.125 c -0.393,0.751 -1.592,1.467 -2.808,1.467 -1.665,0 -2.988,-1.021 -2.988,-2.774 0,-1.216 0.733,-2.146 1.807,-2.594 1.199,-0.519 2.755,-0.34 4.062,-0.411 v -0.823 z m -2.684,5.618 c 2.344,0 2.791,-1.932 2.684,-3.811 -1.521,0.054 -4.705,-0.233 -4.705,2.021 -0.001,1.217 0.93,1.79 2.021,1.79 z"
   id="path70" />
			<path
   fill="#1d1d1b"
   d="m 368.627,156.992 h -1.073 v -6.96 c 0.018,-0.698 -0.054,-1.413 -0.089,-2.021 h 1.108 l 0.054,1.323 h 0.035 c 0.323,-0.913 1.128,-1.556 2.022,-1.592 0.357,-0.018 0.716,0 1.074,0.018 v 1.037 c -0.216,-0.018 -0.448,-0.071 -0.662,-0.071 -1.593,0 -2.435,1.145 -2.47,2.862 v 5.404 z"
   id="path72" />
			<path
   fill="#1d1d1b"
   d="m 374.282,148.994 h -1.789 v -0.983 h 1.789 v -1.915 l 1.073,-0.465 v 2.38 h 2.041 v 0.983 h -2.041 v 6.012 c -0.018,0.824 0.413,1.271 1.234,1.271 0.323,0 0.645,-0.018 0.931,-0.107 v 0.93 c -0.34,0.09 -0.733,0.162 -1.091,0.162 -2.271,0 -2.147,-1.45 -2.147,-2.666 z"
   id="path74" />
			<path
   fill="#1d1d1b"
   d="m 380.546,156.992 h -1.074 v -6.96 c 0,-0.698 -0.052,-1.413 -0.089,-2.021 h 1.109 l 0.054,1.323 0.036,0.036 c 0.626,-1.109 1.646,-1.628 2.809,-1.628 2.935,0 3.167,2.595 3.167,3.632 v 5.618 h -1.074 v -5.796 c 0,-1.557 -0.894,-2.469 -2.361,-2.469 -1.771,0 -2.576,1.485 -2.576,3.095 v 5.17 z"
   id="path76" />
			<path
   fill="#1d1d1b"
   d="m 390.049,152.751 c 0.036,1.915 0.913,3.525 3.113,3.525 1.27,0 2.325,-0.912 2.594,-2.147 h 1.128 c -0.555,2.147 -1.896,3.131 -4.062,3.131 -2.684,0 -3.936,-2.309 -3.936,-4.759 0,-2.434 1.342,-4.759 4.008,-4.759 3.007,0 4.098,2.2 4.098,5.009 z m 5.779,-0.983 c -0.126,-1.736 -1.056,-3.042 -2.917,-3.042 -1.753,0 -2.684,1.466 -2.826,3.042 z"
   id="path78" />
			<path
   fill="#1d1d1b"
   d="m 400.447,156.992 h -1.074 v -6.96 c 0.019,-0.698 -0.053,-1.413 -0.089,-2.021 h 1.108 l 0.055,1.323 h 0.035 c 0.322,-0.913 1.128,-1.556 2.021,-1.592 0.358,-0.018 0.717,0 1.074,0.018 v 1.037 c -0.216,-0.018 -0.447,-0.071 -0.661,-0.071 -1.593,0 -2.435,1.145 -2.47,2.862 v 5.404 z"
   id="path80" />
		</g>
	</g>
</g>
</svg>
